<svg xmlns="http://www.w3.org/2000/svg" aria-hidden="true" style="position:absolute;width:0;height:0;overflow:hidden"><defs><symbol id="icon-antenna" viewBox="0 0 32 32"><path fill="#212121" d="m30.773 22.098-8.443-8.505.937-4.616c.225.09.485.144.758.146h.033c1.192 0 2.159-.967 2.159-2.159s-.967-2.159-2.159-2.159c-1.192 0-2.159.967-2.159 2.159 0 .259.046.508.13.739l-.005-.015-4.96.606L8.973.161a.53.53 0 0 0-.376-.16.5362.5362 0 0 0-.373.155L6.712 1.66c-.096.097-.156.23-.156.377s.06.281.156.377l.814.825C6.383 5.301 5.71 7.761 5.71 10.378c0 4.106 1.656 7.824 4.336 10.525l-.001-.001c.043.041.092.074.146.097a2.986 2.986 0 0 0-.052.546v6.188h-6.4c-1.472.001-2.666 1.194-2.667 2.666v1.067c0 .295.239.534.534.534H26.14c.294 0 .533-.239.533-.534v-1.067c-.002-1.472-1.195-2.665-2.666-2.666h-6.4v-2.742c1.003.21 2.024.317 3.049.32 2.58-.003 5.005-.663 7.117-1.822l-.077.039.818.823c.099.101.235.159.376.16.14-.001.274-.057.373-.155l1.512-1.504c.096-.097.156-.23.156-.377s-.06-.281-.156-.377zM23.28 6.233c.193-.192.459-.31.752-.31.589 0 1.067.478 1.067 1.066s-.477 1.066-1.067 1.066h-.004c-.587-.003-1.061-.479-1.061-1.066 0-.295.12-.563.314-.756h-.002zm-1.256 3.504-.598 2.946-1.175-1.183 1.774-1.763zm-.605-.902-1.92 1.909-1.486-1.493 3.406-.416zM24.004 28.8c.884 0 1.6.716 1.6 1.6v.534H2.138V30.4c0-.884.716-1.6 1.6-1.6h20.267zm-7.466-2.134v1.067h-5.334v-1.067h5.334zM11.204 25.6v-4.053c0-1.294 1.196-2.346 2.667-2.346s2.667 1.053 2.667 2.346V25.6h-5.334zm6.4-1.696v-2.357c0-1.882-1.675-3.413-3.733-3.413h-.058c-1.353 0-2.54.707-3.213 1.771l-.009.016c-2.36-2.482-3.812-5.846-3.812-9.55 0-2.314.567-4.496 1.569-6.414l-.036.077 18.602 18.709c-1.823.947-3.979 1.502-6.266 1.502-1.079 0-2.128-.124-3.136-.357l.093.018zm11.289-.684L7.836 2.039l.754-.752 7.935 7.98c.004 0 .006.007.01.01l13.114 13.191-.757.752z" style="fill:var(--color1, #212121)"/><path fill="#2196f3" d="M13.876 20.267h-.007c-.884 0-1.6.716-1.6 1.6s.715 1.599 1.597 1.6h.007c.884 0 1.6-.716 1.6-1.6s-.715-1.599-1.598-1.6zm.373 1.978a.5297.5297 0 0 1-.376.155c-.295 0-.534-.239-.534-.534s.238-.533.532-.533a.533.533 0 0 1 .531.533c0 .148-.06.282-.157.378h.005z" style="fill:var(--color2, #2196f3)"/></symbol><symbol id="icon-astronaut" viewBox="0 0 32 32"><path fill="#2196f3" d="M31.974 4.524c-.064-.191-.227-.332-.427-.362h-.003l-1.911-.278-.855-1.731c-.179-.365-.777-.365-.956 0l-.855 1.731-1.911.278c-.26.039-.457.26-.457.528 0 .15.062.285.161.382l1.383 1.348-.326 1.903c-.034.2.048.402.212.522.166.12.383.135.562.04l1.709-.899 1.709.899a.531.531 0 0 0 .247.061.5339.5339 0 0 0 .526-.626v.003l-.326-1.903 1.383-1.348a.5348.5348 0 0 0 .134-.55l.001.004zm-2.463 1.327a.5308.5308 0 0 0-.153.472l.191 1.114-1-.526c-.072-.039-.158-.062-.249-.062s-.177.023-.252.063l.003-.001-1 .526.191-1.114a.53.53 0 0 0-.152-.472l-.811-.79 1.119-.162a.5324.5324 0 0 0 .402-.292l.5-1.013.5 1.013c.078.158.228.267.402.292l1.119.162-.809.79zm-3.377 14.671h-1.067v1.067h1.067v-1.067zm0 2.134h-1.067v1.066h1.067v-1.066zm1.066-1.067h-1.067v1.067H27.2v-1.067zm-2.133 0H24v1.067h1.067v-1.067zm-2.667 4.8h-1.067v1.067H22.4v-1.067zm0 2.134h-1.067v1.067H22.4v-1.067zm1.067-1.067H22.4v1.067h1.067v-1.067zm-2.133 0h-1.067v1.067h1.067v-1.067zM16 24.256h-1.066v1.067H16v-1.067zm0 2.133h-1.066v1.067H16v-1.067zm1.067-1.067H16v1.067h1.067v-1.067zm-2.133 0h-1.067v1.067h1.067v-1.067zm-9.067-19.2H4.801v1.066h1.066V6.122zm0 2.134H4.801v1.066h1.066V8.256zm1.066-1.067H5.866v1.067h1.066V7.189zm-2.133 0H3.733v1.067H4.8V7.189z" style="fill:var(--color2, #2196f3)"/><path fill="#212121" d="M24.715 14.16c-.28-.376-.698-.636-1.179-.703l-.009-.001a1.6677 1.6677 0 0 0-.254-.018c-.411 0-.789.139-1.09.373l.004-.003-1.253.96-1.898 1.417-1.358-.541c2.421-1.086 4.113-3.508 4.113-6.32 0-3.823-3.122-6.934-6.961-6.934S7.869 5.5 7.869 9.324c0 1.386.415 2.674 1.12 3.759l-2.768-.024c-.009 0-.016.005-.023.005a.5113.5113 0 0 0-.159.033l.004-.001c-.013.005-.026.007-.038.013-.006.003-.013.003-.019.006l-3.233 1.596s-.001 0-.001.001l-1.893.91a.4994.4994 0 0 0-.065.036l.001-.001C.313 15.981 0 16.524 0 17.14c0 .297.073.577.201.823l-.005-.01c.22.424.592.742 1.043.885l.013.003c.161.053.345.083.537.083.308 0 .598-.078.851-.216l-.009.005 1.388-.738 2.264-1.169 1.357-.008-5.442 5.415c0 .001-.001.001-.001.001L.858 23.547c-.303.299-.491.714-.491 1.173v.005c.002.919.748 1.664 1.667 1.664h.002c.428 0 .854-.162 1.18-.485l1.314-1.309 1.741-1.3.901.897L4.07 27.28c-.303.299-.491.714-.491 1.173v.004c0 .445.174.864.49 1.179.302.3.717.485 1.176.485h.003c.427 0 .855-.162 1.18-.485l4.488-4.472c.007-.006.016-.009.022-.016l5.166-5.658 3.471.494c.025.004.05.006.075.006.064 0 .127-.016.187-.038.017-.006.032-.015.049-.023.019-.01.039-.015.058-.027l3.213-2.133c.012-.008.018-.021.029-.03.013-.01.029-.014.041-.026l1.271-1.191c.348-.326.564-.787.564-1.3 0-.4-.132-.769-.355-1.066l.003.005zM2.13 17.77a.7058.7058 0 0 1-.34.086.7247.7247 0 0 1-.224-.036l.005.001c-.294-.093-.504-.364-.504-.683 0-.235.114-.444.289-.575l.002-.001 1.314-.632.316.924.133.389-.992.527zm3.497-1.828-1.548.8-.255-.746-.184-.537 2.027-1.001-.04 1.484zm15.1-6.62c0 .918-.219 1.785-.599 2.56l-4.181-1.899a1.865 1.865 0 0 0-.782-1.384l-.006-.004 1.464-4.861c2.377.757 4.104 2.975 4.104 5.588zm-11.789 0c0-3.235 2.644-5.867 5.894-5.867.253 0 .5.022.745.053l-1.432 4.753c-.019 0-.037-.006-.057-.006h-.001c-1.032 0-1.869.835-1.872 1.867.003 1.031.84 1.867 1.872 1.867h.001c.695 0 1.295-.383 1.618-.944l3.863 1.755c-1.075 1.447-2.795 2.39-4.737 2.39-3.25 0-5.894-2.632-5.894-5.867zm5.957.8c0 .441-.362.8-.806.8h-.001a.8038.8038 0 0 1-.804-.8c0-.441.361-.8.806-.8s.806.359.806.8zM2.464 25.146c-.11.109-.261.176-.428.176s-.317-.067-.427-.175c-.109-.108-.176-.257-.176-.422s.067-.314.176-.422l.962-.959.852.848-.959.954zm3.214 3.734c-.11.109-.261.176-.428.176s-.317-.067-.427-.175c-.109-.108-.176-.257-.176-.422s.067-.314.176-.422l.963-.959.852.848-.96.955zm3.482-3.469-.001.001-1.765 1.76-.852-.848 1.765-1.757c.04-.04.065-.088.09-.136.007-.014.02-.026.026-.04.016-.041.019-.085.026-.128.003-.025.014-.048.014-.073 0-.035-.013-.07-.02-.105-.006-.032-.006-.064-.019-.096a.5363.5363 0 0 0-.092-.138c-.01-.012-.014-.026-.025-.038h-.001s0-.001-.001-.002l-1.607-1.6c-.017-.017-.039-.024-.058-.038a.4912.4912 0 0 0-.084-.056l-.003-.001a.527.527 0 0 0-.09-.031l-.003-.001a.5019.5019 0 0 0-.101-.02h-.025c-.026 0-.051.002-.075.005h.003c-.036.005-.069.009-.104.021s-.064.027-.094.045c-.02.011-.043.015-.061.029l-1.774 1.324-.901-.897 2.399-2.386 4.36 4.289-.928.919zm6.819-7.017c-.016-.002-.03.004-.046.003-.008 0-.017-.001-.027-.001-.031 0-.062.003-.092.008h.003a.4841.4841 0 0 0-.187.07l.002-.001a.4923.4923 0 0 0-.083.061c-.013.011-.028.016-.04.029l-4.698 5.146-4.328-4.256 2.833-2.818a.5339.5339 0 0 0-.378-.911h-.002l-2.219.013.028-1.607 3.104.027c1.264 1.297 3.027 2.101 4.978 2.101h.003c.438 0 .864-.046 1.28-.122.04.032.08.064.129.085l2.41.96.152.758.178.886-3.003-.427zm4.041.178-.313-1.558 1.446-1.08.946 1.257-2.08 1.381zm3.753-2.831-.837.785-.931-1.236.831-.637c.155-.119.351-.168.543-.143.193.027.364.128.48.284.088.117.141.265.141.426 0 .206-.087.391-.226.521z" style="fill:var(--color1, #212121)"/><path fill="#212121" d="m13.602 18.544-2.143-2.134c-.096-.096-.229-.155-.376-.155s-.28.059-.376.155l-2.143 2.133c-.097.097-.156.23-.156.378s.06.281.156.378l2.142 2.134c.096.096.229.156.376.156s.28-.059.376-.156l2.143-2.134c.097-.097.157-.23.157-.378s-.06-.281-.157-.378zm-2.519 1.759-1.387-1.381 1.386-1.381 1.387 1.381-1.387 1.381zm6.081-15.232-.258 1.036c.071.018 1.738.452 1.738 2.149h1.067c0-2.017-1.666-2.965-2.547-3.184zm2.547 4.251h-1.067v1.066h1.067V9.322z" style="fill:var(--color1, #212121)"/></symbol><symbol id="icon-clock" viewBox="0 0 32 32"><path fill="#212121" d="M31.296 15.301C31.295 6.849 24.441-.002 15.988 0S.685 6.855.687 15.308c.002 6.788 4.422 12.543 10.541 14.545l.108.031c.061.019.123.029.187.029.12 0 .238-.032.342-.094.135-.08.236-.207.283-.357l3.865-12.25c1.054-.004 1.906-.859 1.906-1.913 0-1.056-.856-1.913-1.913-1.913-.303 0-.59.071-.845.196l.011-.005-5.106-5.107a.638.638 0 0 0-.443-.179c-.352 0-.638.286-.638.638 0 .172.068.328.179.443l5.103 5.109c-.121.241-.191.525-.191.826 0 .602.283 1.137.723 1.48l.004.003-3.682 11.673C3.843 25.782.117 17.709 2.797 10.431S13.551-.573 20.829 2.108c7.278 2.681 11.004 10.754 8.323 18.032-1.345 3.581-4.003 6.406-7.374 7.938l-.088.036-.398-1.874c-.063-.291-.318-.506-.624-.506a.637.637 0 0 0-.426.163l.001-.001-3.837 3.426a.6341.6341 0 0 0-.214.477c0 .283.185.524.441.606l.005.001 4.899 1.563c.058.02.126.031.196.031a.6368.6368 0 0 0 .622-.775l.001.004-.391-1.839c5.528-2.374 9.329-7.772 9.329-14.057v-.034.002zm-15.304-.637c.352 0 .638.286.638.638s-.285.638-.638.638c-.352 0-.638-.286-.638-.638s.286-.638.638-.638zm2.1 14.864 2.184-1.948.603 2.84-2.787-.892z" style="fill:var(--color1, #212121)"/><path fill="#2196f3" d="M15.354 3.185V4.46c0 .352.286.638.638.638s.638-.285.638-.638V3.185c0-.352-.285-.638-.638-.638s-.638.285-.638.638zM3.876 14.664c-.352 0-.638.286-.638.638s.285.638.638.638h1.275c.352 0 .638-.286.638-.638s-.285-.638-.638-.638H3.876zm24.232 1.275c.352 0 .638-.286.638-.638s-.285-.638-.638-.638h-1.275c-.352 0-.638.286-.638.638s.285.638.638.638h1.275z" style="fill:var(--color2, #2196f3)"/></symbol><symbol id="icon-diagram" viewBox="0 0 32 32"><path fill="#2196f3" d="M14.926 14.965h1.066v4.798h-1.066v-4.798zm4.264 2.132h1.066v2.665H19.19v-2.665zm-8.529 1.599h1.066v1.066h-1.066v-1.066zm-3.198-.533h1.066v1.599H7.463v-1.599z" style="fill:var(--color2, #2196f3)"/><path fill="#212121" d="M1.599 28.291h25.586c.883 0 1.599-.716 1.599-1.599V24.56c0-.883-.716-1.599-1.599-1.599h-.533V9.667l3.028-2.868c.207.104.452.166.711.166.888 0 1.608-.72 1.608-1.608s-.72-1.608-1.608-1.608c-.888 0-1.608.72-1.608 1.608 0 .247.056.481.155.69l-.004-.01-2.281 2.162v-1.23c0-.883-.716-1.599-1.599-1.599H3.731c-.883 0-1.599.716-1.599 1.599v15.992h-.533C.716 22.961 0 23.677 0 24.56v2.132c0 .883.716 1.599 1.599 1.599zM30.384 4.837c.294 0 .533.239.533.533s-.239.533-.533.533c-.294 0-.533-.239-.533-.533s.239-.533.533-.533zM3.198 6.969c0-.294.239-.533.533-.533h21.323c.294 0 .533.239.533.533v2.239l-1.066 1.013V8.036c0-.295-.239-.534-.534-.534H4.798c-.294 0-.534.239-.534.533v13.327c0 .294.239.533.534.533h19.189c.295 0 .534-.239.534-.533v-9.675l1.066-1.01V22.96H3.198V6.969zm4.798 6.93h-.005c-.883 0-1.599.716-1.599 1.599s.716 1.599 1.599 1.599c.432 0 .824-.172 1.112-.45l1.853.93c.215.107.476.057.636-.122l3.939-4.432 3.872 2.902c.208.155.498.139.686-.039l3.365-3.188v8.131H5.331V8.568h18.123v2.661l-3.771 3.572-3.904-2.927a.5286.5286 0 0 0-.32-.107c-.158 0-.3.069-.398.178v.001l-3.993 4.493-1.493-.746c.011-.064.017-.128.02-.193 0-.883-.716-1.599-1.599-1.599zm.533 1.599c0 .294-.239.533-.533.533s-.533-.239-.533-.533c0-.294.239-.533.533-.533s.533.239.533.533zm3.198 8.528h5.33v.533c0 .294-.238.533-.533.533h-4.265a.5335.5335 0 0 1-.533-.533v-.533zm-10.66.534c0-.294.238-.533.533-.533h9.062v.533c0 .883.716 1.599 1.599 1.599h4.265c.883 0 1.599-.716 1.599-1.599v-.533h9.062c.294 0 .533.239.533.533v2.132c0 .294-.239.533-.533.533H1.601a.5335.5335 0 0 1-.533-.533V24.56z" style="fill:var(--color1, #212121)"/></symbol><symbol id="icon-envelope" viewBox="0 0 39 32"><path d="M35.716 2.415H3.695C1.658 2.415 0 4.07 0 6.11v22.154c0 2.037 1.658 3.695 3.695 3.695h32.021c2.037 0 3.695-1.658 3.695-3.695V6.108c0-2.037-1.658-3.695-3.695-3.695zm0 2.463c.167 0 .328.032.473.094L19.706 19.251 3.223 4.972c.14-.06.302-.096.473-.096h32.021zm0 24.617H3.695c-.68 0-1.232-.551-1.232-1.232V7.573L18.897 21.81c.215.188.498.302.808.302s.593-.114.809-.303l-.001.001L36.947 7.573v20.69c0 .68-.551 1.232-1.232 1.232z"/></symbol><symbol id="icon-facebook" viewBox="0 0 32 32"><path d="M21.328 5.312h2.923V.224C23.019.081 21.591 0 20.144 0h-.157.008c-4.213 0-7.099 2.65-7.099 7.52V12H8.25v5.688h4.646V32h5.699V17.69h4.459l.709-5.688h-5.17V8.08c0-1.643.443-2.768 2.734-2.768z"/></symbol><symbol id="icon-group-2" viewBox="0 0 25 32"><path d="M10.531 1.806h-.084a9.9847 9.9847 0 0 0-.388-.014h-.28c-.244 0-.494.006-.741.018-.008-.001-.018-.001-.028-.001s-.02 0-.029.001h.001c-2.376.139-4.583.733-6.577 1.697l.104-.045-.266.128v13.628l.623-.212c.547-.188 1.129-.357 1.731-.513 1.489-.398 3.202-.638 4.968-.662h.014v1.79c-.223.001-.439.007-.655.018h-.052c-1.399.079-2.71.289-3.972.619l.139-.031c-1.734.441-3.254 1.051-4.667 1.831l.1-.051V2.529c1.38-.82 2.975-1.488 4.665-1.921L5.264.58C6.617.216 8.172.004 9.775-.002h.267c.315.008.622.022.91.044.83.06 1.597.187 2.34.379l-.09-.02v1.762c-.628-.154-1.373-.271-2.135-.326l-.045-.003-.044-.004c-.152-.013-.304-.026-.446-.026zm3.102 1.801c.391.03.796.044 1.205.044 1.689-.007 3.324-.228 4.882-.64l-.135.03c1.734-.443 3.253-1.052 4.665-1.832l-.101.051v17.166c-1.38.819-2.975 1.487-4.665 1.921l-.127.028c-1.353.363-2.908.574-4.512.581h-.115c-1.177 0-2.319-.147-3.41-.425l.095.021V3.274c.265.062.537.118.814.164.455.077.934.133 1.401.167zm8.736.134-.623.209c-.572.193-1.151.365-1.731.518-1.551.415-3.333.657-5.17.663h-.004c-.406 0-.78-.011-1.141-.034l-.497-.033v14.019l.427.037c.395.035.803.052 1.214.052 1.451-.006 2.853-.198 4.19-.554l-.116.026c1.221-.31 2.281-.702 3.286-1.189l-.102.044.267-.128V3.739zM1.683 25.981a.9156.9156 0 0 0-.661-.281c-.011 0-.023 0-.034.001H.99.976c-.139 0-.272.028-.393.078l.007-.003c-.237.095-.42.28-.51.512l-.002.006c-.049.123-.073.254-.071.387v2.335c-.006.164.026.328.092.479.055.12.135.227.234.313.093.078.203.135.32.166.114.031.231.048.349.048.13.001.258-.026.377-.081.351-.156.591-.501.591-.902v-.261h-.611V29c0 .07-.013.136-.037.198l.001-.004a.38.38 0 0 1-.089.132.4257.4257 0 0 1-.255.089.3082.3082 0 0 1-.286-.125l-.001-.001A.5484.5484 0 0 1 .61 29c0-.008 0-.016.001-.024v.001-2.178a.7401.7401 0 0 1 .075-.349.3109.3109 0 0 1 .262-.143c.013 0 .025.001.038.002H.985h.012c.107 0 .201.052.261.131l.001.001c.063.082.101.187.101.3v.014-.001.202h.604v-.249c0-.143-.027-.28-.077-.406l.003.007a.955.955 0 0 0-.205-.329zm3.626-.026a1.083 1.083 0 0 0-.694-.257c-.124 0-.248.023-.364.066a.9635.9635 0 0 0-.557.512l-.002.006c-.062.142-.092.297-.089.452v2.239c-.004.158.026.314.089.459a.888.888 0 0 0 .236.313c.094.086.203.154.322.197.117.043.24.065.364.066.267-.001.51-.1.695-.264l-.001.001a.9483.9483 0 0 0 .23-.313c.063-.144.093-.301.089-.459V26.713c0-.156-.033-.305-.092-.439l.003.007a1.016 1.016 0 0 0-.23-.327zm-.285 3.018c.001.01.002.023.002.035 0 .114-.047.216-.123.289-.077.065-.178.105-.287.105s-.21-.04-.288-.105l.001.001a.4001.4001 0 0 1-.123-.289c0-.012.001-.025.002-.037v.002-2.24c-.001-.01-.001-.022-.001-.034 0-.114.047-.216.123-.289.077-.065.178-.105.287-.105s.21.04.288.105l-.001-.001a.3984.3984 0 0 1 .121.326v-.002 2.24zm5.048 1.001v-4.241h-.587l-.771 2.245h-.01l-.777-2.244h-.58v4.239h.606v-2.579h.011l.593 1.823h.302l.598-1.823h.01v2.579h.606zm3.441-3.943a.8341.8341 0 0 0-.342-.232c-.124-.042-.267-.066-.416-.066h-.024.001-.9v4.241h.604v-1.656h.311c.189.009.376-.031.545-.116a.8794.8794 0 0 0 .329-.32l.002-.004c.07-.113.117-.238.138-.369.021-.133.033-.287.033-.444v-.04.002c.006-.203-.014-.407-.059-.606a.906.906 0 0 0-.223-.39zm-.312 1.292a.5378.5378 0 0 1-.057.224l.001-.003a.342.342 0 0 1-.154.147l-.002.001a.6174.6174 0 0 1-.254.054c-.011 0-.022 0-.033-.001h.002-.276v-1.441h.311c.009 0 .019-.001.029-.001.088 0 .172.02.247.055l-.004-.002c.062.036.111.09.141.154l.001.002c.033.074.051.155.053.236v.282c0 .098.006.201 0 .291H13.2zm3.174-1.59h-.495l-.934 4.241h.604l.177-.911h.824l.178.911h.604l-.958-4.241zm-.558 2.752.297-1.537h.011l.295 1.537h-.604zm4.461-.198h-.011l-.912-2.554h-.581v4.241h.604v-2.55h.012l.923 2.549h.568v-4.239h-.604v2.554zm3.692-2.554-.486 1.686h-.012l-.486-1.686h-.639l.83 2.448v1.792h.604v-1.792l.83-2.448h-.64zM-.002 31.171h.291v.817h.198v-.817h.289v-.167h-.778v.168zm2.448-.168-.382.985h.21l.081-.224h.392l.084.224h.215l-.391-.985h-.21zm-.031.595.134-.365.134.365h-.268zm2.45.026h.228v.127a.3725.3725 0 0 1-.234.083h-.014a.25.25 0 0 1-.195-.094.4062.4062 0 0 1-.073-.234c0-.008 0-.016.001-.023v.001c0-.219.095-.329.283-.329.006-.001.014-.001.021-.001.097 0 .178.067.201.157v.001l.194-.038c-.042-.192-.18-.289-.417-.289h-.013a.492.492 0 0 0-.331.127.4796.4796 0 0 0-.143.342c0 .013 0 .026.002.038v-.002.023c0 .132.048.254.127.347l-.001-.001c.087.09.209.146.343.146.011 0 .021 0 .032-.001h-.001.016c.155 0 .296-.06.402-.157v-.388h-.427v.166zm2.471-.621h-.199v.985h.689v-.167h-.49v-.817zm2.09 0h-.199v.985h.199v-.985zm2.043.657-.404-.657h-.193v.985h.185v-.643l.396.643h.198v-.985h-.182v.658zm1.846-.106h.491v-.167h-.491v-.215h.527v-.168h-.727v.985h.747v-.167h-.548v-.267zm4.478-.163h-.388v-.388h-.197v.984h.197v-.431h.388v.431h.198v-.985h-.198v.388zm1.857.163h.492v-.167h-.492v-.215h.529v-.168h-.726v.985h.746v-.167h-.548v-.267zm2.519 0c.171-.027.259-.118.259-.274a.233.233 0 0 0-.096-.219h-.001a.555.555 0 0 0-.25-.059c-.014 0-.027 0-.04.001h.002-.417v.984h.198v-.412h.055c.039 0 .076.008.109.023l-.002-.001c.029.018.053.042.07.072l.215.313h.236l-.12-.192a.7042.7042 0 0 0-.215-.235l-.002-.002zm-.199-.136h-.146v-.247h.156a.5154.5154 0 0 1 .205.024l-.004-.001c.026.024.043.058.043.096 0 .042-.02.08-.052.104a.537.537 0 0 1-.164.025c-.013 0-.026 0-.039-.001h.002zm2.099.136h.49v-.167h-.49v-.215h.529v-.168h-.729v.985h.747v-.167h-.548v-.267z"/></symbol><symbol id="icon-group-1" viewBox="0 0 28 32"><path d="m4.087 0 4.772 4.518-8.858-.005v21.919h23.153v-8.381l4.767 4.513V.001H4.087zm18.857 17.52L9.413 4.711h13.531V17.52zm-4.201 5.704H3.664V8.484H4.73v13.743h14.013v.998zM7.226 29.35l-.557 1.147-.557-1.147h-.467l.813 1.529v.891h.422v-.891l.811-1.529h-.465zm.7 2.42.196-.564h.938l.197.564h.439l-.916-2.421h-.378l-.914 2.421h.437zm.665-1.906.351 1.004h-.701l.351-1.004zm2.218.946a.544.544 0 0 0-.091.303v.004c0 .204.072.37.214.497s.336.19.575.19c.239 0 .445-.065.618-.195l.136.161h.469l-.355-.421c.14-.191.209-.435.209-.733h-.351c0 .163-.034.311-.101.444l-.468-.552.165-.12c.1-.068.184-.152.249-.249l.002-.003a.53.53 0 0 0 .076-.275v-.013c0-.149-.065-.283-.169-.374h-.001a.6092.6092 0 0 0-.408-.157h-.025.001c-.195 0-.35.056-.465.166s-.173.259-.173.449c0 .078.018.157.054.241.038.083.104.184.197.302-.179.129-.3.24-.36.334zm1.092.535a.6131.6131 0 0 1-.382.136h-.02c-.104 0-.199-.04-.27-.106a.3634.3634 0 0 1-.109-.259v-.014.001c0-.129.067-.245.2-.346l.052-.037.528.624zm-.434-1.073c-.114-.141-.172-.257-.172-.351 0-.081.024-.148.07-.201a.239.239 0 0 1 .178-.081h.01-.001.009c.067 0 .127.026.173.068.048.045.072.099.072.161v.009c0 .09-.04.171-.103.226l-.052.041-.185.127zm3.94 1.315c.166-.145.261-.347.286-.605h-.419c-.022.173-.075.296-.158.37s-.208.112-.373.112c-.18 0-.318-.069-.412-.206s-.14-.337-.14-.599v-.214c.003-.259.052-.454.15-.587.099-.134.24-.201.422-.201.157 0 .276.039.357.116s.133.202.153.376h.419c-.027-.265-.121-.47-.285-.615s-.378-.218-.645-.218c-.198 0-.373.048-.525.142a.9248.9248 0 0 0-.345.396l-.002.006c-.077.169-.122.367-.122.576v.03-.001.226c.003.223.045.418.125.587s.193.298.339.39c.148.091.318.136.511.136.276 0 .497-.072.663-.216zm2.472-.339c.082-.18.123-.388.123-.625v-.158c0-.216-.047-.421-.131-.605l.004.009a.9316.9316 0 0 0-.35-.406l-.004-.002c-.152-.095-.326-.143-.524-.143s-.372.048-.525.144c-.152.095-.27.233-.354.414-.079.175-.125.38-.125.595v.032-.002.136c.001.232.043.436.126.613.084.178.203.315.356.411.154.095.329.143.525.143.199 0 .374-.048.526-.143.153-.097.27-.234.352-.413zm-.45-1.369c.102.143.153.349.153.618v.126c0 .272-.05.48-.151.622-.099.142-.242.213-.429.213h-.017a.5009.5009 0 0 1-.413-.217l-.001-.002c-.104-.145-.155-.351-.155-.617v-.14c.002-.26.054-.462.156-.603.091-.131.24-.215.41-.215H17h-.001c.187 0 .33.072.431.215z"/></symbol><symbol id="icon-group-4" viewBox="0 0 65 32"><path d="M10.016 9.986h-.002c-1.827 0-3.308 1.316-3.308 2.94v.002c0 1.624 1.481 2.94 3.308 2.94h.002c1.827 0 3.308-1.317 3.308-2.94v-.002c0-1.624-1.481-2.941-3.308-2.941zm24.418-.939c-.005-2.255-1.016-4.418-2.81-6.012S27.398.542 24.861.537c-2.539.004-4.972.902-6.767 2.497s-2.806 3.757-2.811 6.013v12.437s19.15-1.896 19.152-12.434v-.002zM0 25.565c.005 1.57.709 3.073 1.957 4.183s2.94 1.735 4.706 1.739c1.765-.005 3.457-.63 4.706-1.739s1.952-2.613 1.957-4.181v-8.654S.002 18.233.002 25.565zm6.662 1.55c-.345 0-.682-.091-.969-.261-.279-.164-.499-.401-.638-.686l-.004-.009c-.084-.173-.132-.377-.132-.592 0-.107.012-.212.035-.312l-.002.009c.067-.301.233-.578.477-.794.243-.214.547-.364.882-.423l.011-.002c.103-.019.221-.03.341-.03.239 0 .469.043.68.122l-.013-.004c.319.117.592.316.783.571s.294.555.294.861c.001.204-.043.407-.131.596-.094.198-.221.366-.376.503l-.002.001c-.162.145-.354.259-.567.338-.199.075-.428.119-.668.119h-.001v-.006zm13.466-.854h-1.286v1.328h-.67v-3.251h2.117v.542h-1.447v.84h1.286v.54zm3.218-.223c0 .32-.056.6-.169.841s-.276.427-.488.558a1.32 1.32 0 0 1-.698.197h-.025.001c-.27 0-.51-.065-.722-.194-.213-.134-.382-.322-.487-.546l-.003-.008c-.112-.236-.177-.512-.177-.804v-.028.001-.16c0-.32.058-.602.172-.844.116-.244.279-.431.489-.56.211-.131.452-.197.723-.197s.51.066.721.197c.211.13.374.316.489.56.116.242.174.523.174.841v.145zm-.678-.148c0-.341-.061-.6-.183-.777a.5962.5962 0 0 0-.496-.266c-.009 0-.018 0-.028.001h.001c-.008 0-.016-.001-.025-.001-.205 0-.387.104-.494.262l-.001.002c-.122.174-.184.43-.185.768v.158c0 .331.061.589.183.772s.297.274.527.274c.008 0 .017.001.026.001a.591.591 0 0 0 .49-.261l.001-.002c.12-.177.181-.434.183-.773v-.158zm2.85.846c0-.006.001-.012.001-.019 0-.11-.052-.208-.133-.27l-.001-.001c-.089-.069-.25-.14-.482-.214-.214-.067-.396-.142-.57-.232l.019.009c-.37-.2-.554-.469-.554-.806 0-.175.049-.332.147-.469.1-.139.242-.246.427-.324.186-.077.395-.116.625-.116.232 0 .439.042.621.127.181.084.322.201.421.355.101.152.152.328.152.522h-.67c0-.149-.046-.264-.14-.346-.094-.084-.226-.125-.395-.125-.164 0-.291.035-.382.105a.3254.3254 0 0 0-.136.265v.008c0 .106.053.194.158.266.107.071.264.138.471.2.381.114.658.257.833.427s.261.381.261.634c0 .281-.107.503-.32.663s-.498.239-.859.239c-.25 0-.478-.046-.683-.137a1.1094 1.1094 0 0 1-.469-.373l-.002-.003c-.1-.15-.16-.335-.16-.533v-.022.001h.671c0 .358.214.538.643.538.159 0 .283-.032.373-.096a.3191.3191 0 0 0 .134-.259v-.013.001zm3.574-1.855h-.995v2.708h-.67v-2.708h-.981v-.542h2.647v.542zm2.339 1.299h-1.285v.871h1.509v.538h-2.178v-3.251h2.174v.542h-1.505v.775h1.286v.524zm1.819.219h-.533v1.19h-.67v-3.251h1.208c.384 0 .68.086.888.257s.312.413.312.725c0 .222-.048.408-.145.556-.108.156-.255.278-.429.35l-.006.002.702 1.328v.03h-.718l-.61-1.189zm-.533-.542h.541c.168 0 .297-.042.39-.126a.4599.4599 0 0 0 .139-.33c0-.009 0-.017-.001-.026v.001c0-.154-.043-.274-.131-.362s-.219-.132-.4-.132h-.538v.975zm4.058.587v1.145h-.67v-3.251h1.268c.244 0 .459.045.643.134.186.089.329.216.429.382.099.164.149.35.149.56 0 .318-.11.57-.328.754-.218.183-.519.275-.904.275h-.587zm0-.542h.598c.178 0 .312-.042.404-.125.094-.084.141-.203.141-.357 0-.007.001-.016.001-.024 0-.14-.053-.267-.141-.363-.094-.098-.223-.149-.389-.152h-.614v1.021zm4.236.278h-1.285v.871h1.509v.538h-2.178v-3.251h2.174v.542h-1.505v.775h1.286v.524zm3.108-1.299h-.996v2.708h-.67v-2.708h-.982v-.542h2.648v.542zm2.339 1.299h-1.285v.871h1.509v.538h-2.179v-3.251h2.174v.542h-1.504v.775h1.285v.524zm1.819.219h-.533v1.19h-.67v-3.251h1.208c.384 0 .68.086.888.257s.312.413.312.725c0 .222-.049.408-.145.556-.108.156-.256.278-.429.35l-.006.002.703 1.328v.03h-.718l-.61-1.189zm-.533-.542h.54c.168 0 .298-.042.39-.126a.4605.4605 0 0 0 .139-.331c0-.009 0-.017-.001-.025v.001c0-.154-.043-.274-.132-.362-.086-.088-.219-.132-.399-.132h-.538v.975zm3.935.88c0-.006.001-.012.001-.019 0-.11-.052-.208-.134-.271l-.001-.001c-.089-.069-.25-.14-.482-.214-.214-.067-.396-.142-.57-.232l.019.009c-.37-.2-.554-.469-.554-.806 0-.175.05-.332.147-.469.1-.139.242-.246.427-.324.186-.077.395-.116.625-.116.232 0 .439.042.621.127.181.084.322.201.421.355.101.152.152.328.152.522h-.67c0-.149-.046-.264-.14-.346-.094-.084-.226-.125-.395-.125-.164 0-.291.035-.382.105a.3263.3263 0 0 0-.137.265v.007c0 .106.053.194.159.266s.264.138.471.2c.381.114.658.257.833.427s.261.381.261.634c0 .281-.107.503-.32.663s-.499.239-.859.239c-.25 0-.478-.046-.683-.137a1.1094 1.1094 0 0 1-.469-.373l-.002-.003c-.1-.15-.16-.335-.16-.533v-.022.001h.671c0 .358.214.538.643.538.159 0 .283-.032.373-.096a.317.317 0 0 0 .134-.26v-.013.001z"/></symbol><symbol id="icon-group-5" viewBox="0 0 43 32"><path d="M3.239 26.376c.166.188.254.424.25.665.001.015.001.033.001.05 0 .149-.033.29-.093.416l.003-.006c-.072.152-.172.279-.296.378l-.002.002c-.282.194-.631.31-1.007.31-.041 0-.082-.001-.123-.004h.006H.001v-4.215h1.937c.034-.002.074-.004.114-.004.356 0 .688.106.965.287l-.007-.004c.125.097.225.218.289.354.065.138.095.286.086.436.011.232-.068.461-.225.644-.15.168-.358.283-.59.33.262.044.499.172.667.361zM.92 25.74h.828c.188.012.374-.037.526-.14.06-.05.108-.113.14-.184l.001-.003a.4596.4596 0 0 0 .038-.185c0-.014-.001-.028-.002-.042v.002c.001-.011.001-.023.001-.035 0-.068-.014-.133-.04-.192l.001.003a.51.51 0 0 0-.138-.187l-.001-.001a.8447.8447 0 0 0-.545-.142h.003-.815v1.106zm1.435 1.617a.5265.5265 0 0 0 .151-.19l.001-.003a.4716.4716 0 0 0 .044-.202c0-.012 0-.023-.001-.035v.002c.001-.009.001-.02.001-.031 0-.075-.017-.147-.047-.21l.001.003a.534.534 0 0 0-.154-.193l-.001-.001a.8985.8985 0 0 0-.565-.152h.003H.92v1.16h.88c.197.01.394-.041.556-.146zm4.842.832L6.12 26.541h-.405v1.648h-.927v-4.215h1.755c.037-.003.081-.004.125-.004.413 0 .794.136 1.101.366l-.005-.003c.245.229.394.53.417.85.002.026.003.057.003.088 0 .307-.109.589-.291.808l.002-.002c-.218.224-.506.378-.829.427l-.008.001 1.147 1.685H7.197zm-1.481-2.223h.758c.526 0 .79-.212.79-.638.001-.01.001-.022.001-.034 0-.08-.016-.156-.045-.225l.001.004a.6284.6284 0 0 0-.15-.218.865.865 0 0 0-.523-.174c-.026 0-.051.001-.077.003h.003-.767l.009 1.283zm6.547 1.374h-1.847l-.326.849h-.972l1.695-4.169h1.051l1.689 4.169h-.971l-.319-.848zm-.247-.638-.675-1.779-.675 1.779h1.35zm6.588 1.487h-.919l-2.063-2.867v2.867h-.918v-4.216h.918l2.063 2.884v-2.884h.919v4.216zm5.25-1.009c-.191.318-.48.577-.833.744-.358.168-.777.267-1.219.267-.026 0-.053 0-.079-.001h.004-1.637v-4.215h1.638c.023-.001.05-.001.077-.001.441 0 .859.096 1.235.267l-.019-.008c.352.163.642.419.832.735.189.343.288.722.288 1.106s-.099.763-.288 1.106zm-1.052-.101c.25-.261.404-.616.407-1.006 0-.369-.144-.726-.407-1.006a1.6813 1.6813 0 0 0-1.157-.358h.005-.639v2.729h.639c.032.002.069.003.106.003.397 0 .761-.136 1.05-.364l-.004.003zM12.839.524s11.874 4.104 11.622 10.044v10.046s-11.866-4.106-11.618-10.046L12.839.524zm22.2 17.738c2.243-1.413 4.837-2.288 7.544-2.545v-3.146c-3.12 1.102-5.767 3.098-7.544 5.691z"/><path d="M33.693 19.21c1.835-3.384 5.017-5.995 8.891-7.297V2.851s-16.91 5.847-16.553 14.305v14.303s.754-.261 1.939-.752c0-.457 0-.919.054-1.382.349-3.926 2.388-7.565 5.668-10.116z"/><path d="M32.084 24.523c.089-.992.287-1.973.592-2.929-2.043 2.203-3.279 4.937-3.536 7.816-.025.272-.039.543-.045.824 1.41-.617 2.478-1.142 3.525-1.703l-.273.133c-.3-1.363-.388-2.757-.263-4.142zm.673.052c-.033.348-.052.752-.052 1.161 0 .917.095 1.811.276 2.674l-.015-.084c4.62-2.532 9.812-6.443 9.611-11.169v-.412c-3.301.338-6.389 1.659-8.791 3.761-.53 1.19-.896 2.571-1.026 4.019l-.004.051z"/></symbol><symbol id="icon-group-6" viewBox="0 0 67 32"><path d="M33.725 15.223a2.0843 2.0843 0 0 1-.43-1.42v.006-2.051c0-.628.142-1.106.428-1.433.284-.327.774-.489 1.468-.488.652 0 1.116.139 1.389.417.299.355.444.789.411 1.226v.482h-1.166v-.489c.004-.159-.007-.319-.034-.477a.4642.4642 0 0 0-.166-.283l-.001-.001a.6722.6722 0 0 0-.373-.112c-.018 0-.035.001-.052.002h.002a.712.712 0 0 0-.447.118l.003-.002a.5493.5493 0 0 0-.193.309l-.001.004c-.03.14-.047.302-.047.467v.042-.002 2.488c-.019.24.033.48.149.698.061.075.139.133.23.168l.004.001c.068.027.148.043.231.043.025 0 .05-.001.074-.004h-.003a.6292.6292 0 0 0 .414-.114l-.002.001c.09-.075.153-.18.174-.299v-.003c.027-.165.04-.332.036-.498v-.505h1.167v.461c.003.036.004.079.004.122 0 .443-.153.85-.41 1.171l.003-.004c-.268.304-.725.457-1.397.457s-1.179-.163-1.466-.501zm4.859.022c-.295-.32-.442-.784-.442-1.399v-2.157c0-.609.147-1.07.442-1.383s.787-.469 1.478-.467c.686 0 1.176.156 1.471.467.294.313.444.774.444 1.383v2.156c0 .609-.149 1.077-.449 1.398s-.787.481-1.466.481-1.181-.163-1.479-.479zm2.022-.518c.106-.199.154-.419.14-.638v-2.641a1.1795 1.1795 0 0 0-.14-.632l.003.006a.5584.5584 0 0 0-.234-.17l-.004-.001a.6223.6223 0 0 0-.229-.042.755.755 0 0 0-.083.005h.003a.6483.6483 0 0 0-.313.038l.004-.002a.5685.5685 0 0 0-.239.171l-.001.001c-.107.195-.154.41-.14.626v2.653c-.014.22.033.439.14.639.068.067.152.121.246.158.089.036.192.056.3.056s.211-.021.305-.058l-.006.002a.7226.7226 0 0 0 .246-.158v-.013zm2.776-4.826h1.256l.944 3.979.967-3.979h1.222l.124 5.743h-.904l-.097-3.992-.932 3.992h-.725l-.966-4.006-.09 4.006h-.913l.114-5.743zm5.921 0h1.957c1.127 0 1.691.543 1.691 1.631 0 1.041-.594 1.562-1.781 1.56h-.666v2.552h-1.208l.007-5.744zm1.672 2.454c.119.014.24.004.356-.028a.855.855 0 0 0 .309-.154c.139-.194.2-.422.174-.649.001-.019.001-.041.001-.063 0-.163-.022-.321-.062-.471l.003.013a.43.43 0 0 0-.089-.158.5016.5016 0 0 0-.149-.114l-.003-.001a1.2392 1.2392 0 0 0-.476-.094c-.022 0-.044.001-.066.002h.003-.469v1.717h.469zm3.718-2.454h1.297l1.331 5.743h-1.126l-.263-1.324h-1.157l-.27 1.324h-1.143l1.331-5.743zm1.109 3.754-.452-2.411-.452 2.411h.903zm2.594-3.754h.846l1.618 3.276V9.901h1.003v5.743h-.804l-1.629-3.421v3.421h-1.036l.002-5.743zm5.815 3.553-1.345-3.545H64l.821 2.278.77-2.278H66.7l-1.329 3.546v2.19h-1.159v-2.19zm-28.62 4.702v.3h-.986v2.334h-.413v-2.334h-.991v-.3h2.389zm3.09 2.634h-.328c-.03 0-.058-.009-.081-.025a.1375.1375 0 0 1-.052-.06v-.001l-.285-.626h-1.367l-.284.626a.1676.1676 0 0 1-.044.071.1444.1444 0 0 1-.082.025h-.326l1.208-2.634h.42l1.223 2.624zm-2.001-.978h1.14l-.484-1.072c-.031-.067-.061-.15-.086-.235l-.003-.014c-.017.05-.031.098-.045.14l-.044.11-.478 1.07zm4.083.719c.076.004.151.004.228 0 .065-.006.129-.016.193-.031.059-.012.117-.028.174-.048.053-.018.107-.042.161-.065v-.592h-.487a.095.095 0 0 1-.061-.022.0595.0595 0 0 1-.018-.021.0475.0475 0 0 1-.006-.024V19.523h.937v1.01c-.147.091-.316.165-.496.211l-.013.003c-.1.026-.2.043-.302.055-.117.011-.235.016-.353.016h-.015c-.212 0-.416-.036-.606-.102l.013.004c-.186-.065-.347-.158-.486-.277l.002.002a1.2757 1.2757 0 0 1-.308-.409l-.003-.008c-.07-.156-.111-.338-.111-.529v-.019.001-.016c0-.193.04-.377.112-.543l-.003.009c.069-.156.176-.299.311-.417.138-.119.302-.211.484-.273.206-.068.427-.101.647-.098.112 0 .225.007.336.023.098.014.195.036.287.067.085.027.166.063.242.105.074.041.144.087.211.137l-.116.163a.101.101 0 0 1-.039.035h-.001a.1124.1124 0 0 1-.055.014.1559.1559 0 0 1-.075-.021h.001a1.595 1.595 0 0 1-.126-.066l.007.004a1.0977 1.0977 0 0 0-.154-.069l-.008-.002a1.5223 1.5223 0 0 0-.213-.057l-.009-.001a1.7488 1.7488 0 0 0-.29-.023h-.017.001-.015c-.162 0-.317.027-.462.076l.01-.003c-.134.046-.256.117-.356.208a.9437.9437 0 0 0-.222.321l-.002.006c-.051.13-.081.281-.081.439s.03.309.084.448l-.003-.008c.053.124.135.237.242.332.099.09.219.161.352.208.154.046.316.063.479.052zm3.851-.041h1.319v.3h-1.722v-2.634h.412l-.009 2.334zm2.69.3h-.412v-2.634h.412v2.634zm1.537-2.621a.2.2 0 0 1 .063.047l1.766 1.985c-.001-.014-.002-.03-.002-.047s.001-.033.002-.049v.002-1.963h.36v2.645h-.222a.1963.1963 0 0 1-.077-.016h.001a.2302.2302 0 0 1-.065-.05l-1.764-1.984v2.048h-.346v-2.634h.215c.023 0 .047.004.068.012zm5.231-.013v.289h-1.464v.87h1.186v.279h-1.186v.9h1.464v.289h-1.889v-2.628h1.889zM10.782 1.888l18.344 4.496v15.757l-18.344-4.494V1.887zM9.605.544v17.869l20.694 5.075V5.622L9.606.546z"/><path d="M20.697 31.781 0 26.702V8.836l20.697 5.077v17.868z"/><path d="m9.949 1.686 18.104 4.44-7.699 6.649L2.246 8.333l7.702-6.648zM9.605.545 0 8.837l20.697 5.077L30.3 5.62 9.606.545zm12.256 30.232 8.439-7.288-8.44-2.069v9.358z"/></symbol><symbol id="icon-group-3" viewBox="0 0 34 32"><path d="M5.643 31.318c.012 0 .024.003.035.008s.021.011.03.018l.166.158c-.13.129-.289.232-.468.302-.184.069-.397.109-.62.109-.015 0-.03 0-.045-.001h.002c-.213.004-.425-.03-.622-.101a1.3646 1.3646 0 0 1-.47-.286l.001.001a1.294 1.294 0 0 1-.301-.432l-.003-.008c-.067-.162-.106-.35-.106-.548v-.018.001-.029c0-.388.168-.737.436-.977l.001-.001c.142-.124.312-.222.498-.287.205-.069.423-.103.642-.101h.04c.199 0 .39.034.568.096l-.012-.004c.165.062.316.149.447.255l-.139.169a.1429.1429 0 0 1-.035.03h-.001a.0985.0985 0 0 1-.048.013h-.008a.1316.1316 0 0 1-.062-.018h.001l-.074-.046-.104-.058a1.1818 1.1818 0 0 0-.321-.1l-.007-.001a1.376 1.376 0 0 0-.23-.018h-.019.001-.015c-.16 0-.313.028-.455.079l.009-.003c-.14.049-.26.122-.363.214l.001-.001a.9773.9773 0 0 0-.235.339c-.054.128-.085.276-.085.432v.017-.001.019c0 .157.031.307.088.444l-.003-.008c.051.125.13.239.231.338.095.091.213.164.345.21.136.049.281.073.427.072.085.001.17-.004.254-.014.211-.022.4-.106.55-.234l-.001.001a.133.133 0 0 1 .078-.029zm4.798-.798v.017c0 .197-.041.384-.116.553l.003-.009c-.074.172-.18.317-.311.435l-.001.001c-.138.123-.302.22-.481.283l-.01.003c-.189.064-.406.101-.632.101s-.443-.037-.646-.105l.014.004a1.4714 1.4714 0 0 1-.489-.288l.001.001a1.279 1.279 0 0 1-.313-.432l-.003-.008c-.071-.166-.112-.359-.112-.562s.041-.396.116-.572l-.004.01c.071-.165.178-.315.316-.442.139-.121.305-.215.488-.277.188-.065.406-.103.632-.103s.443.038.646.107l-.014-.004c.184.065.351.162.49.286.137.126.244.274.314.435.077.181.115.373.112.565zm-.436 0v-.024c0-.154-.029-.301-.082-.436l.003.008c-.101-.26-.308-.459-.566-.548l-.007-.002c-.137-.047-.295-.074-.459-.074s-.322.027-.469.077l.01-.003c-.136.049-.254.121-.352.214a.914.914 0 0 0-.223.331l-.002.006c-.05.134-.079.289-.079.451s.029.317.082.46l-.003-.009c.101.261.309.46.569.547l.007.002c.296.097.622.097.918 0a.971.971 0 0 0 .35-.211.933.933 0 0 0 .222-.338c.056-.145.082-.298.079-.451zm3.71.473.043.101c.017-.036.031-.069.048-.101.019-.039.037-.072.056-.103l-.002.004 1.061-1.677c.021-.029.04-.047.061-.053s.047-.009.073-.009h.015-.001.314v2.728h-.372v-2.09a.68.68 0 0 1-.002-.047c0-.016.001-.033.002-.049v.002L13.942 31.4a.158.158 0 0 1-.062.061h-.001a.1908.1908 0 0 1-.09.023h-.064a.1825.1825 0 0 1-.09-.023h.001a.1494.1494 0 0 1-.061-.061v-.001l-1.099-1.711v2.189h-.359v-2.722h.328c.026 0 .051.003.075.01h-.002c.026.011.046.03.058.053l1.084 1.678c.02.028.038.06.053.094l.001.004zm3.995-.135v1.021h-.414v-2.723h.926c.175-.003.349.018.517.059.134.034.259.091.366.17.089.07.159.16.205.262l.002.004c.05.111.073.23.071.349v.017a.755.755 0 0 1-.299.603l-.002.001a1.062 1.062 0 0 1-.368.18c-.14.04-.301.064-.468.064h-.035l-.501-.008zm0-.293h.503c.109.002.218-.013.322-.041a.69.69 0 0 0 .234-.119l-.002.001a.5218.5218 0 0 0 .191-.404v-.007c.001-.009.001-.019.001-.029 0-.07-.015-.136-.043-.195l.001.003a.5287.5287 0 0 0-.144-.185l-.001-.001a.8876.8876 0 0 0-.493-.149c-.023 0-.046.001-.069.003h.003-.503v1.122zm5.584 1.318h-.334a.1504.1504 0 0 1-.086-.026h.001a.1613.1613 0 0 1-.054-.062v-.001l-.282-.658H21.12l-.293.658a.1558.1558 0 0 1-.141.088h-.333l1.246-2.728h.432l1.263 2.728zm-2.057-1.013h1.172l-.494-1.11a1.8752 1.8752 0 0 1-.094-.256l-.048.142a.876.876 0 0 1-.046.116l-.49 1.108zm3.852-1.701c.024.011.046.028.062.048l1.818 2.056v-2.117h.372v2.728h-.212a.204.204 0 0 1-.082-.017h.001a.2214.2214 0 0 1-.066-.05l-1.816-2.054c.001.014.001.03.001.047s-.001.033-.002.049v-.002 2.027h-.372v-2.728h.22c.025 0 .051.005.075.013zm5.313 1.629v1.083h-.415v-1.082l-1.149-1.643h.381c.03 0 .057.009.081.023h-.001c.023.018.042.039.056.062l.718 1.06c.029.046.054.087.075.126s.038.078.053.115l.053-.117c.021-.043.044-.084.071-.124l.709-1.067a.2926.2926 0 0 1 .053-.058.1367.1367 0 0 1 .082-.027h.384l-1.15 1.65zm-16.893-6.219c.181.02.363.036.549.05 2.803-1.09 5.174-2.872 6.818-5.126s2.485-4.878 2.421-7.546l-3.09-2.683c.629 2.84.335 5.775-.848 8.478s-3.208 5.067-5.849 6.827z"/><path d="m12.407 24.454.083.015c2.822-1.755 4.973-4.203 6.176-7.031s1.402-5.904.571-8.83l-4.4-3.822c1.779 3.142 2.496 6.659 2.065 10.141-.43 3.482-1.989 6.786-4.495 9.528zm14.921-9.346c-.747 2.931-2.563 5.574-5.177 7.538-.714.543-1.519 1.053-2.367 1.49l-.092.043c2.129-.543 4.085-1.504 5.718-2.808s2.901-2.917 3.703-4.714l-1.784-1.549z"/><path d="m26.628 14.677-2.54-2.207c-.049 2.517-.872 4.976-2.385 7.122s-3.66 3.902-6.217 5.084h.012c.57 0 1.139-.03 1.705-.088 2.39-.848 4.502-2.197 6.146-3.926s2.771-3.785 3.278-5.985zM12.774 3.172 9.743.536c-2.709.91-5.039 2.509-6.686 4.588S.526 9.666.518 12.19c.01 2.789 1.09 5.495 3.07 7.69 1.979 2.194 4.744 3.754 7.858 4.43 2.779-2.942 4.407-6.578 4.646-10.379s-.924-7.57-3.319-10.758zM33.63 14.271c-.011-3.308-1.528-6.478-4.221-8.818s-6.342-3.658-10.15-3.668h-.028c-1.831 0-3.59.305-5.231.867l.114-.034L32.67 18.74c.605-1.313.958-2.849.96-4.468v-.001z"/></symbol><symbol id="icon-instagram" viewBox="0 0 32 32"><path d="M31.968 9.408c-.074-1.701-.349-2.869-.742-3.882-.424-1.111-1.054-2.059-1.85-2.837l-.001-.001A7.9057 7.9057 0 0 0 26.597.861l-.054-.018C25.524.449 24.362.176 22.661.101 20.949.019 20.405 0 16.059 0c-4.344 0-4.888.019-6.595.094-1.699.074-2.869.349-3.88.742-1.112.424-2.06 1.054-2.839 1.85l-.001.001c-.791.78-1.418 1.724-1.825 2.778l-.018.054C.506 6.538.232 7.7.157 9.401c-.082 1.712-.101 2.256-.101 6.602 0 4.344.019 4.888.094 6.595.075 1.701.35 2.869.744 3.882.426 1.11 1.055 2.057 1.849 2.837l.001.001c.8.813 1.77 1.443 2.832 1.843 1.019.395 2.182.67 3.882.744 1.707.075 2.251.094 6.595.094 4.346 0 4.89-.019 6.595-.094 1.701-.074 2.869-.349 3.882-.742 2.157-.85 3.833-2.526 4.664-4.628l.019-.055c.394-1.019.669-2.182.744-3.882.075-1.707.093-2.251.093-6.595s-.006-4.888-.08-6.595zm-2.88 13.066c-.07 1.563-.333 2.406-.55 2.97-.552 1.399-1.64 2.486-3.004 3.024l-.036.012c-.56.219-1.411.482-2.968.55-1.688.075-2.194.094-6.464.094-4.269 0-4.782-.019-6.464-.094-1.563-.069-2.406-.331-2.97-.55-.721-.269-1.334-.676-1.836-1.192l-.001-.001a4.9782 4.9782 0 0 1-1.184-1.803L3.6 25.45c-.218-.563-.48-1.413-.549-2.97-.075-1.688-.094-2.195-.094-6.464 0-4.27.019-4.784.094-6.464.069-1.563.331-2.406.549-2.97.269-.722.678-1.337 1.198-1.837l.002-.002a4.972 4.972 0 0 1 1.806-1.182l.034-.011c.56-.219 1.411-.48 2.968-.55 1.688-.074 2.195-.093 6.464-.093 4.275 0 4.782.019 6.464.093 1.563.069 2.406.331 2.97.55.693.256 1.325.662 1.837 1.194.531.52.938 1.144 1.195 1.84.218.56.48 1.411.549 2.968.075 1.688.094 2.194.094 6.464 0 4.269-.019 4.768-.094 6.458z"/><path d="M16.059 7.782c-4.539.002-8.218 3.682-8.219 8.221.091 4.471 3.737 8.06 8.221 8.06s8.13-3.589 8.221-8.052v-.009c-.001-4.54-3.681-8.22-8.221-8.221zm0 13.552c-2.945 0-5.332-2.388-5.332-5.333s2.388-5.333 5.333-5.333h.001c2.946 0 5.334 2.388 5.334 5.334s-2.388 5.334-5.334 5.334zM26.525 7.458c0 1.06-.86 1.92-1.92 1.92s-1.92-.86-1.92-1.92.86-1.92 1.92-1.92 1.92.86 1.92 1.92z"/></symbol><symbol id="icon-linkedin" viewBox="0 0 32 32"><path d="M31.992 32H32V20.262c0-5.741-1.235-10.163-7.947-10.163-3.227 0-5.392 1.77-6.277 3.45h-.093v-2.914h-6.365v21.363h6.627V21.42c0-2.786.528-5.48 3.978-5.48 3.398 0 3.45 3.179 3.45 5.658V32h6.619zM.528 10.635h6.635V32H.528V10.635zM3.843 0C1.72 0 0 1.721 0 3.843c0 2.12 1.722 3.878 3.843 3.878 2.12 0 3.842-1.757 3.842-3.878S5.965.002 3.844 0z"/></symbol><symbol id="icon-smartphone" viewBox="0 0 19 32"><path d="M16.003 1.863H2.82c-1.557 0-2.825 1.267-2.825 2.825V29.16c0 1.557 1.267 2.825 2.825 2.825h13.183c1.557 0 2.825-1.267 2.825-2.825V4.689c0-1.557-1.267-2.825-2.825-2.825zM2.821 3.746h13.183c.52 0 .942.422.942.942v19.766H1.88V4.688c0-.52.422-.942.942-.942zm13.182 26.355H2.82c-.52 0-.942-.422-.942-.942v-2.825h15.066v2.825c0 .52-.422.942-.942.942z"/><path d="M4.429 27.727c.17.154.276.375.276.621s-.106.468-.275.621l-.001.001c-.175.16-.409.259-.667.259s-.492-.098-.667-.259l.001.001c-.17-.154-.276-.375-.276-.621s.106-.468.275-.621l.001-.001c.175-.16.409-.259.667-.259s.492.098.667.259l-.001-.001z"/></symbol><symbol id="icon-twitter" viewBox="0 0 32 32"><path d="M32 6.078c-1.1.493-2.376.857-3.713 1.028l-.068.007c1.36-.817 2.382-2.078 2.873-3.579l.013-.046c-1.197.722-2.591 1.273-4.076 1.573l-.084.014c-1.2-1.279-2.9-2.076-4.787-2.076-3.622 0-6.558 2.936-6.558 6.558v.004c0 .52.043 1.021.152 1.496-5.454-.266-10.28-2.88-13.522-6.861-.564.949-.899 2.092-.902 3.313v.001c0 2.272 1.171 4.286 2.914 5.451-1.091-.03-2.107-.325-2.994-.823l.033.017v.072c.003 3.165 2.236 5.807 5.213 6.44l.043.008c-.499.136-1.071.215-1.662.215h-.061.003c-.419 0-.843-.024-1.242-.112.85 2.598 3.261 4.509 6.13 4.57-2.215 1.746-5.045 2.8-8.122 2.8H1.57h.001-.062c-.531 0-1.055-.034-1.569-.099l.061.006c2.826 1.846 6.287 2.944 10.004 2.944h.063-.003c12.072 0 18.672-10 18.672-18.669 0-.288-.01-.57-.024-.848 1.299-.936 2.39-2.064 3.258-3.355l.03-.047z"/></symbol><symbol id="icon-envelope2" viewBox="0 0 43 32"><path d="M38.667 0H4C1.794 0 0 1.794 0 4v24c0 2.206 1.794 4 4 4h34.667c2.206 0 4-1.794 4-4V4c0-2.206-1.794-4-4-4zm0 2.667c.181 0 .353.038.511.103L21.334 18.236 3.49 2.77c.158-.066.33-.103.511-.103h34.667zm0 26.666H4c-.736 0-1.333-.598-1.333-1.333V5.587L20.46 21.008a1.335 1.335 0 0 0 1.748 0L40.001 5.587V28c0 .736-.598 1.333-1.333 1.333z"/></symbol></defs></svg><svg xmlns="http://www.w3.org/2000/svg" aria-hidden="true" style="position:absolute;width:0;height:0;overflow:hidden"><defs><symbol id="icon-close-black-18dp-2-1" viewBox="0 0 32 32"><path d="m26.667 7.303-1.97-1.97-7.808 7.808-7.808-7.808-1.97 1.97 7.808 7.808-7.808 7.808 1.97 1.97 7.808-7.808 7.808 7.808 1.97-1.97-7.808-7.808 7.808-7.808z"/></symbol></defs></svg>